<mxfile host="Electron" modified="2023-08-18T02:07:30.501Z" agent="Mozilla/5.0 (X11; Linux x86_64) AppleWebKit/537.36 (KHTML, like Gecko) draw.io/21.6.8 Chrome/114.0.5735.289 Electron/25.5.0 Safari/537.36" etag="Z9k1DSUrtJmcNe_YIPKl" version="21.6.8" type="device">
  <diagram name="Page-1" id="Y4uiyYiFn9qZ3ZojbBKU">
    <mxGraphModel dx="1270" dy="747" grid="1" gridSize="10" guides="1" tooltips="1" connect="1" arrows="1" fold="1" page="1" pageScale="1" pageWidth="1169" pageHeight="827" math="0" shadow="0">
      <root>
        <mxCell id="0" />
        <mxCell id="1" parent="0" />
        <mxCell id="3nDrO4pnCwWNOXJuBUd8-18" value="" style="rounded=1;orthogonalLoop=1;jettySize=auto;html=1;shadow=0;backgroundOutline=0;shape=flexArrow;endWidth=3.5;endSize=1.336111111111111;width=3;startWidth=20;arcSize=20;strokeWidth=0.75;fillColor=default;comic=0;" parent="1" edge="1">
          <mxGeometry relative="1" as="geometry">
            <mxPoint x="1000.8181818181819" y="60.00001055717638" as="sourcePoint" />
            <mxPoint x="929.9968379446641" y="114.32" as="targetPoint" />
          </mxGeometry>
        </mxCell>
        <mxCell id="3nDrO4pnCwWNOXJuBUd8-1" value="[0,0,0]&lt;br style=&quot;font-size: 15px;&quot;&gt;[0,0,0]&lt;br style=&quot;font-size: 15px;&quot;&gt;&lt;div style=&quot;font-size: 15px;&quot;&gt;&lt;span style=&quot;background-color: initial; font-size: 15px;&quot;&gt;[0,0,0]&lt;/span&gt;&lt;/div&gt;" style="rounded=0;whiteSpace=wrap;html=1;fontSize=15;fontFamily=Times New Roman;strokeColor=default;shadow=0;arcSize=50;backgroundOutline=0;container=0;comic=0;" parent="1" vertex="1">
          <mxGeometry x="566.0362264150945" y="30" width="60" height="70" as="geometry" />
        </mxCell>
        <mxCell id="tLWVuBAh7IST3Z_mRKRW-22" value="" style="edgeStyle=none;shape=connector;rounded=1;comic=0;orthogonalLoop=1;jettySize=auto;html=1;shadow=0;labelBackgroundColor=default;strokeColor=default;strokeWidth=0.75;fontFamily=Helvetica;fontSize=11;fontColor=default;endArrow=classic;fillColor=default;" edge="1" parent="1" source="tLWVuBAh7IST3Z_mRKRW-7" target="tLWVuBAh7IST3Z_mRKRW-21">
          <mxGeometry relative="1" as="geometry" />
        </mxCell>
        <mxCell id="tLWVuBAh7IST3Z_mRKRW-24" value="" style="edgeStyle=none;shape=connector;rounded=1;comic=0;orthogonalLoop=1;jettySize=auto;html=1;shadow=0;labelBackgroundColor=default;strokeColor=default;strokeWidth=0.75;fontFamily=Helvetica;fontSize=11;fontColor=default;endArrow=classic;fillColor=default;" edge="1" parent="1" source="tLWVuBAh7IST3Z_mRKRW-7" target="tLWVuBAh7IST3Z_mRKRW-23">
          <mxGeometry relative="1" as="geometry" />
        </mxCell>
        <mxCell id="tLWVuBAh7IST3Z_mRKRW-26" value="" style="edgeStyle=none;shape=connector;rounded=1;comic=0;orthogonalLoop=1;jettySize=auto;html=1;shadow=0;labelBackgroundColor=default;strokeColor=default;strokeWidth=0.75;fontFamily=Helvetica;fontSize=11;fontColor=default;endArrow=classic;fillColor=default;" edge="1" parent="1" source="tLWVuBAh7IST3Z_mRKRW-7" target="tLWVuBAh7IST3Z_mRKRW-25">
          <mxGeometry relative="1" as="geometry" />
        </mxCell>
        <mxCell id="tLWVuBAh7IST3Z_mRKRW-7" value="[1,0,0]&lt;br style=&quot;font-size: 15px;&quot;&gt;[0,0,0]&lt;br style=&quot;font-size: 15px;&quot;&gt;&lt;div style=&quot;font-size: 15px;&quot;&gt;&lt;span style=&quot;background-color: initial; font-size: 15px;&quot;&gt;[0,0,0]&lt;/span&gt;&lt;/div&gt;" style="rounded=0;whiteSpace=wrap;html=1;fontSize=15;fontFamily=Times New Roman;strokeColor=default;shadow=0;arcSize=50;backgroundOutline=0;container=0;comic=0;" vertex="1" parent="1">
          <mxGeometry x="400" y="118.63636363636363" width="60" height="70" as="geometry" />
        </mxCell>
        <mxCell id="tLWVuBAh7IST3Z_mRKRW-8" value="" style="rounded=1;orthogonalLoop=1;jettySize=auto;html=1;shadow=0;endSize=1.336111111111111;arcSize=20;strokeWidth=0.75;fillColor=default;comic=0;startWidth=20;endWidth=5;entryX=1.016;entryY=0.126;entryDx=0;entryDy=0;entryPerimeter=0;fontSize=15;" edge="1" parent="1" source="3nDrO4pnCwWNOXJuBUd8-1" target="tLWVuBAh7IST3Z_mRKRW-7">
          <mxGeometry relative="1" as="geometry" />
        </mxCell>
        <mxCell id="tLWVuBAh7IST3Z_mRKRW-9" value="[0,1,0]&lt;br style=&quot;font-size: 15px;&quot;&gt;[0,0,0]&lt;br style=&quot;font-size: 15px;&quot;&gt;&lt;div style=&quot;font-size: 15px;&quot;&gt;&lt;span style=&quot;background-color: initial; font-size: 15px;&quot;&gt;[0,0,0]&lt;/span&gt;&lt;/div&gt;" style="rounded=0;whiteSpace=wrap;html=1;fontSize=15;fontFamily=Times New Roman;strokeColor=default;shadow=0;arcSize=50;backgroundOutline=0;container=0;comic=0;" vertex="1" parent="1">
          <mxGeometry x="540.0026415094339" y="118.63636363636363" width="60" height="70" as="geometry" />
        </mxCell>
        <mxCell id="tLWVuBAh7IST3Z_mRKRW-10" value="" style="rounded=1;orthogonalLoop=1;jettySize=auto;html=1;shadow=0;endSize=1.336111111111111;arcSize=20;strokeWidth=0.75;fillColor=default;comic=0;startWidth=20;endWidth=5;fontSize=15;" edge="1" parent="1" source="3nDrO4pnCwWNOXJuBUd8-1" target="tLWVuBAh7IST3Z_mRKRW-9">
          <mxGeometry relative="1" as="geometry" />
        </mxCell>
        <mxCell id="tLWVuBAh7IST3Z_mRKRW-11" value="[0,1,0]&lt;br style=&quot;font-size: 15px;&quot;&gt;[0,0,0]&lt;br style=&quot;font-size: 15px;&quot;&gt;&lt;div style=&quot;font-size: 15px;&quot;&gt;&lt;span style=&quot;background-color: initial; font-size: 15px;&quot;&gt;[0,0,0]&lt;/span&gt;&lt;/div&gt;" style="rounded=0;whiteSpace=wrap;html=1;fontSize=15;fontFamily=Times New Roman;strokeColor=default;shadow=0;arcSize=50;backgroundOutline=0;container=0;comic=0;" vertex="1" parent="1">
          <mxGeometry x="639.6252830188679" y="118.63636363636363" width="60" height="70" as="geometry" />
        </mxCell>
        <mxCell id="tLWVuBAh7IST3Z_mRKRW-12" value="" style="rounded=1;orthogonalLoop=1;jettySize=auto;html=1;shadow=0;endSize=1.336111111111111;arcSize=20;strokeWidth=0.75;fillColor=default;comic=0;startWidth=20;endWidth=5;fontSize=15;" edge="1" parent="1" source="3nDrO4pnCwWNOXJuBUd8-1" target="tLWVuBAh7IST3Z_mRKRW-11">
          <mxGeometry relative="1" as="geometry" />
        </mxCell>
        <mxCell id="tLWVuBAh7IST3Z_mRKRW-13" value="[0,0,0]&lt;br style=&quot;font-size: 15px;&quot;&gt;[0,0,0]&lt;br style=&quot;font-size: 15px;&quot;&gt;&lt;div style=&quot;font-size: 15px;&quot;&gt;&lt;span style=&quot;background-color: initial; font-size: 15px;&quot;&gt;[0,0,1]&lt;/span&gt;&lt;/div&gt;" style="rounded=0;whiteSpace=wrap;html=1;fontSize=15;fontFamily=Times New Roman;strokeColor=default;shadow=0;arcSize=50;backgroundOutline=0;container=0;comic=0;" vertex="1" parent="1">
          <mxGeometry x="813.9649056603774" y="118.63636363636363" width="60" height="70" as="geometry" />
        </mxCell>
        <mxCell id="tLWVuBAh7IST3Z_mRKRW-14" value="" style="rounded=1;orthogonalLoop=1;jettySize=auto;html=1;shadow=0;arcSize=20;strokeWidth=0.75;fillColor=default;comic=0;startWidth=20;endWidth=5;fontSize=15;" edge="1" parent="1" source="3nDrO4pnCwWNOXJuBUd8-1" target="tLWVuBAh7IST3Z_mRKRW-13">
          <mxGeometry relative="1" as="geometry" />
        </mxCell>
        <mxCell id="tLWVuBAh7IST3Z_mRKRW-30" value="" style="edgeStyle=none;shape=connector;rounded=1;comic=0;orthogonalLoop=1;jettySize=auto;html=1;shadow=0;labelBackgroundColor=default;strokeColor=default;strokeWidth=0.75;fontFamily=Helvetica;fontSize=11;fontColor=default;endArrow=classic;fillColor=default;" edge="1" parent="1" source="tLWVuBAh7IST3Z_mRKRW-21" target="tLWVuBAh7IST3Z_mRKRW-29">
          <mxGeometry relative="1" as="geometry" />
        </mxCell>
        <mxCell id="tLWVuBAh7IST3Z_mRKRW-33" value="" style="edgeStyle=none;shape=connector;rounded=1;comic=0;orthogonalLoop=1;jettySize=auto;html=1;shadow=0;labelBackgroundColor=default;strokeColor=default;strokeWidth=0.75;fontFamily=Helvetica;fontSize=11;fontColor=default;endArrow=classic;fillColor=default;" edge="1" parent="1" source="tLWVuBAh7IST3Z_mRKRW-21" target="tLWVuBAh7IST3Z_mRKRW-32">
          <mxGeometry relative="1" as="geometry" />
        </mxCell>
        <mxCell id="tLWVuBAh7IST3Z_mRKRW-35" value="" style="edgeStyle=none;shape=connector;rounded=1;comic=0;orthogonalLoop=1;jettySize=auto;html=1;shadow=0;labelBackgroundColor=default;strokeColor=default;strokeWidth=0.75;fontFamily=Helvetica;fontSize=11;fontColor=default;endArrow=classic;fillColor=default;" edge="1" parent="1" source="tLWVuBAh7IST3Z_mRKRW-21" target="tLWVuBAh7IST3Z_mRKRW-34">
          <mxGeometry relative="1" as="geometry" />
        </mxCell>
        <mxCell id="tLWVuBAh7IST3Z_mRKRW-21" value="[1,2,0]&lt;br style=&quot;font-size: 15px;&quot;&gt;[0,0,0]&lt;br style=&quot;font-size: 15px;&quot;&gt;&lt;div style=&quot;font-size: 15px;&quot;&gt;&lt;span style=&quot;background-color: initial; font-size: 15px;&quot;&gt;[0,0,0]&lt;/span&gt;&lt;/div&gt;" style="rounded=0;whiteSpace=wrap;html=1;fontSize=15;fontFamily=Times New Roman;strokeColor=default;shadow=0;arcSize=50;backgroundOutline=0;container=0;comic=0;fontColor=default;" vertex="1" parent="1">
          <mxGeometry x="300" y="250" width="60" height="70" as="geometry" />
        </mxCell>
        <mxCell id="tLWVuBAh7IST3Z_mRKRW-23" value="[1,0,2]&lt;br style=&quot;font-size: 15px;&quot;&gt;[0,0,0]&lt;br style=&quot;font-size: 15px;&quot;&gt;&lt;div style=&quot;font-size: 15px;&quot;&gt;&lt;span style=&quot;background-color: initial; font-size: 15px;&quot;&gt;[0,0,0]&lt;/span&gt;&lt;/div&gt;" style="rounded=0;whiteSpace=wrap;html=1;fontSize=15;fontFamily=Times New Roman;strokeColor=default;shadow=0;arcSize=50;backgroundOutline=0;container=0;comic=0;fontColor=default;" vertex="1" parent="1">
          <mxGeometry x="430" y="250" width="60" height="70" as="geometry" />
        </mxCell>
        <mxCell id="tLWVuBAh7IST3Z_mRKRW-25" value="[1,0,0]&lt;br style=&quot;font-size: 15px;&quot;&gt;[0,0,0]&lt;br style=&quot;font-size: 15px;&quot;&gt;&lt;div style=&quot;font-size: 15px;&quot;&gt;&lt;span style=&quot;background-color: initial; font-size: 15px;&quot;&gt;[0,0,2]&lt;/span&gt;&lt;/div&gt;" style="rounded=0;whiteSpace=wrap;html=1;fontSize=15;fontFamily=Times New Roman;strokeColor=default;shadow=0;arcSize=50;backgroundOutline=0;container=0;comic=0;fontColor=default;" vertex="1" parent="1">
          <mxGeometry x="560" y="250" width="60" height="70" as="geometry" />
        </mxCell>
        <mxCell id="tLWVuBAh7IST3Z_mRKRW-27" value="&lt;font face=&quot;Verdana&quot; style=&quot;font-size: 30px;&quot;&gt;...&lt;/font&gt;" style="text;strokeColor=none;align=center;fillColor=none;html=1;verticalAlign=middle;whiteSpace=wrap;rounded=0;fontSize=11;fontFamily=Helvetica;fontColor=default;" vertex="1" parent="1">
          <mxGeometry x="720" y="138.64" width="60" height="30" as="geometry" />
        </mxCell>
        <mxCell id="tLWVuBAh7IST3Z_mRKRW-28" value="&lt;font face=&quot;Verdana&quot; style=&quot;font-size: 30px;&quot;&gt;...&lt;/font&gt;" style="text;strokeColor=none;align=center;fillColor=none;html=1;verticalAlign=middle;whiteSpace=wrap;rounded=0;fontSize=11;fontFamily=Helvetica;fontColor=default;" vertex="1" parent="1">
          <mxGeometry x="500" y="260" width="60" height="30" as="geometry" />
        </mxCell>
        <mxCell id="tLWVuBAh7IST3Z_mRKRW-38" value="" style="edgeStyle=none;shape=connector;rounded=1;comic=0;orthogonalLoop=1;jettySize=auto;html=1;shadow=0;labelBackgroundColor=default;strokeColor=default;strokeWidth=0.75;fontFamily=Helvetica;fontSize=11;fontColor=default;endArrow=classic;fillColor=default;" edge="1" parent="1" source="tLWVuBAh7IST3Z_mRKRW-29" target="tLWVuBAh7IST3Z_mRKRW-37">
          <mxGeometry relative="1" as="geometry" />
        </mxCell>
        <mxCell id="tLWVuBAh7IST3Z_mRKRW-40" value="" style="edgeStyle=none;shape=connector;rounded=1;comic=0;orthogonalLoop=1;jettySize=auto;html=1;shadow=0;labelBackgroundColor=default;strokeColor=default;strokeWidth=0.75;fontFamily=Helvetica;fontSize=11;fontColor=default;endArrow=classic;fillColor=default;" edge="1" parent="1" source="tLWVuBAh7IST3Z_mRKRW-29" target="tLWVuBAh7IST3Z_mRKRW-39">
          <mxGeometry relative="1" as="geometry" />
        </mxCell>
        <mxCell id="tLWVuBAh7IST3Z_mRKRW-42" value="" style="edgeStyle=none;shape=connector;rounded=1;comic=0;orthogonalLoop=1;jettySize=auto;html=1;shadow=0;labelBackgroundColor=default;strokeColor=default;strokeWidth=0.75;fontFamily=Helvetica;fontSize=11;fontColor=default;endArrow=classic;fillColor=default;" edge="1" parent="1" source="tLWVuBAh7IST3Z_mRKRW-29" target="tLWVuBAh7IST3Z_mRKRW-41">
          <mxGeometry relative="1" as="geometry" />
        </mxCell>
        <mxCell id="tLWVuBAh7IST3Z_mRKRW-29" value="[1,2,3]&lt;br style=&quot;font-size: 15px;&quot;&gt;[0,0,0]&lt;br style=&quot;font-size: 15px;&quot;&gt;&lt;div style=&quot;font-size: 15px;&quot;&gt;&lt;span style=&quot;background-color: initial; font-size: 15px;&quot;&gt;[0,0,0]&lt;/span&gt;&lt;/div&gt;" style="rounded=0;whiteSpace=wrap;html=1;fontSize=15;fontFamily=Times New Roman;strokeColor=default;shadow=0;arcSize=50;backgroundOutline=0;container=0;comic=0;fontColor=default;" vertex="1" parent="1">
          <mxGeometry x="220" y="380" width="60" height="70" as="geometry" />
        </mxCell>
        <mxCell id="tLWVuBAh7IST3Z_mRKRW-32" value="[1,2,0]&lt;br style=&quot;font-size: 15px;&quot;&gt;[3,0,0]&lt;br style=&quot;font-size: 15px;&quot;&gt;&lt;div style=&quot;font-size: 15px;&quot;&gt;&lt;span style=&quot;background-color: initial; font-size: 15px;&quot;&gt;[0,0,0]&lt;/span&gt;&lt;/div&gt;" style="rounded=0;whiteSpace=wrap;html=1;fontSize=15;fontFamily=Times New Roman;strokeColor=default;shadow=0;arcSize=50;backgroundOutline=0;container=0;comic=0;fontColor=default;" vertex="1" parent="1">
          <mxGeometry x="340" y="380" width="60" height="70" as="geometry" />
        </mxCell>
        <mxCell id="tLWVuBAh7IST3Z_mRKRW-34" value="[1,2,0]&lt;br style=&quot;font-size: 15px;&quot;&gt;[0,0,0]&lt;br style=&quot;font-size: 15px;&quot;&gt;&lt;div style=&quot;font-size: 15px;&quot;&gt;&lt;span style=&quot;background-color: initial; font-size: 15px;&quot;&gt;[0,0,3]&lt;/span&gt;&lt;/div&gt;" style="rounded=0;whiteSpace=wrap;html=1;fontSize=15;fontFamily=Times New Roman;strokeColor=default;shadow=0;arcSize=50;backgroundOutline=0;container=0;comic=0;fontColor=default;" vertex="1" parent="1">
          <mxGeometry x="450" y="380" width="60" height="70" as="geometry" />
        </mxCell>
        <mxCell id="tLWVuBAh7IST3Z_mRKRW-36" value="&lt;font face=&quot;Verdana&quot; style=&quot;font-size: 30px;&quot;&gt;...&lt;/font&gt;" style="text;strokeColor=none;align=center;fillColor=none;html=1;verticalAlign=middle;whiteSpace=wrap;rounded=0;fontSize=11;fontFamily=Helvetica;fontColor=default;" vertex="1" parent="1">
          <mxGeometry x="390" y="394" width="60" height="30" as="geometry" />
        </mxCell>
        <mxCell id="tLWVuBAh7IST3Z_mRKRW-46" value="" style="edgeStyle=none;shape=connector;rounded=1;comic=0;orthogonalLoop=1;jettySize=auto;html=1;shadow=0;labelBackgroundColor=default;strokeColor=default;strokeWidth=0.75;fontFamily=Helvetica;fontSize=11;fontColor=default;endArrow=classic;fillColor=default;" edge="1" parent="1" source="tLWVuBAh7IST3Z_mRKRW-37" target="tLWVuBAh7IST3Z_mRKRW-45">
          <mxGeometry relative="1" as="geometry" />
        </mxCell>
        <mxCell id="tLWVuBAh7IST3Z_mRKRW-48" value="" style="edgeStyle=none;shape=connector;rounded=1;comic=0;orthogonalLoop=1;jettySize=auto;html=1;shadow=0;labelBackgroundColor=default;strokeColor=default;strokeWidth=0.75;fontFamily=Helvetica;fontSize=11;fontColor=default;endArrow=classic;fillColor=default;" edge="1" parent="1" source="tLWVuBAh7IST3Z_mRKRW-37" target="tLWVuBAh7IST3Z_mRKRW-47">
          <mxGeometry relative="1" as="geometry" />
        </mxCell>
        <mxCell id="tLWVuBAh7IST3Z_mRKRW-50" value="" style="edgeStyle=none;shape=connector;rounded=1;comic=0;orthogonalLoop=1;jettySize=auto;html=1;shadow=0;labelBackgroundColor=default;strokeColor=default;strokeWidth=0.75;fontFamily=Helvetica;fontSize=11;fontColor=default;endArrow=classic;fillColor=default;" edge="1" parent="1" source="tLWVuBAh7IST3Z_mRKRW-37" target="tLWVuBAh7IST3Z_mRKRW-49">
          <mxGeometry relative="1" as="geometry" />
        </mxCell>
        <mxCell id="tLWVuBAh7IST3Z_mRKRW-37" value="[1,2,3]&lt;br style=&quot;font-size: 15px;&quot;&gt;[4,0,0]&lt;br style=&quot;font-size: 15px;&quot;&gt;&lt;div style=&quot;font-size: 15px;&quot;&gt;&lt;span style=&quot;background-color: initial; font-size: 15px;&quot;&gt;[0,0,0]&lt;/span&gt;&lt;/div&gt;" style="rounded=0;whiteSpace=wrap;html=1;fontSize=15;fontFamily=Times New Roman;strokeColor=default;shadow=0;arcSize=50;backgroundOutline=0;container=0;comic=0;fontColor=default;" vertex="1" parent="1">
          <mxGeometry x="110" y="510" width="60" height="70" as="geometry" />
        </mxCell>
        <mxCell id="tLWVuBAh7IST3Z_mRKRW-39" value="[1,2,3]&lt;br style=&quot;font-size: 15px;&quot;&gt;[0,4,0]&lt;br style=&quot;font-size: 15px;&quot;&gt;&lt;div style=&quot;font-size: 15px;&quot;&gt;&lt;span style=&quot;background-color: initial; font-size: 15px;&quot;&gt;[0,0,0]&lt;/span&gt;&lt;/div&gt;" style="rounded=0;whiteSpace=wrap;html=1;fontSize=15;fontFamily=Times New Roman;strokeColor=default;shadow=0;arcSize=50;backgroundOutline=0;container=0;comic=0;fontColor=default;" vertex="1" parent="1">
          <mxGeometry x="230" y="510" width="60" height="70" as="geometry" />
        </mxCell>
        <mxCell id="tLWVuBAh7IST3Z_mRKRW-41" value="[1,2,3]&lt;br style=&quot;font-size: 15px;&quot;&gt;[0,0,0]&lt;br style=&quot;font-size: 15px;&quot;&gt;&lt;div style=&quot;font-size: 15px;&quot;&gt;&lt;span style=&quot;background-color: initial; font-size: 15px;&quot;&gt;[0,0,4]&lt;/span&gt;&lt;/div&gt;" style="rounded=0;whiteSpace=wrap;html=1;fontSize=15;fontFamily=Times New Roman;strokeColor=default;shadow=0;arcSize=50;backgroundOutline=0;container=0;comic=0;fontColor=default;" vertex="1" parent="1">
          <mxGeometry x="340" y="510" width="60" height="70" as="geometry" />
        </mxCell>
        <mxCell id="tLWVuBAh7IST3Z_mRKRW-43" value="&lt;font face=&quot;Verdana&quot; style=&quot;font-size: 30px;&quot;&gt;...&lt;/font&gt;" style="text;strokeColor=none;align=center;fillColor=none;html=1;verticalAlign=middle;whiteSpace=wrap;rounded=0;fontSize=11;fontFamily=Helvetica;fontColor=default;" vertex="1" parent="1">
          <mxGeometry x="290" y="520" width="60" height="30" as="geometry" />
        </mxCell>
        <mxCell id="tLWVuBAh7IST3Z_mRKRW-45" value="[1,2,3]&lt;br style=&quot;font-size: 15px;&quot;&gt;[4,5,0]&lt;br style=&quot;font-size: 15px;&quot;&gt;&lt;div style=&quot;font-size: 15px;&quot;&gt;&lt;span style=&quot;background-color: initial; font-size: 15px;&quot;&gt;[0,0,0]&lt;/span&gt;&lt;/div&gt;" style="rounded=0;whiteSpace=wrap;html=1;fontSize=15;fontFamily=Times New Roman;strokeColor=#b85450;shadow=0;arcSize=50;backgroundOutline=0;container=0;comic=0;fillColor=#f8cecc;" vertex="1" parent="1">
          <mxGeometry x="40" y="640" width="60" height="70" as="geometry" />
        </mxCell>
        <mxCell id="tLWVuBAh7IST3Z_mRKRW-47" value="[1,2,3]&lt;br style=&quot;font-size: 15px;&quot;&gt;[4,0,5]&lt;br style=&quot;font-size: 15px;&quot;&gt;&lt;div style=&quot;font-size: 15px;&quot;&gt;&lt;span style=&quot;background-color: initial; font-size: 15px;&quot;&gt;[0,0,0]&lt;/span&gt;&lt;/div&gt;" style="rounded=0;whiteSpace=wrap;html=1;fontSize=15;fontFamily=Times New Roman;strokeColor=#b85450;shadow=0;arcSize=50;backgroundOutline=0;container=0;comic=0;fillColor=#f8cecc;" vertex="1" parent="1">
          <mxGeometry x="130" y="640" width="60" height="70" as="geometry" />
        </mxCell>
        <mxCell id="tLWVuBAh7IST3Z_mRKRW-49" value="[1,2,3]&lt;br style=&quot;font-size: 15px;&quot;&gt;[4,0,0]&lt;br style=&quot;font-size: 15px;&quot;&gt;&lt;div style=&quot;font-size: 15px;&quot;&gt;&lt;span style=&quot;background-color: initial; font-size: 15px;&quot;&gt;[0,0,5]&lt;/span&gt;&lt;/div&gt;" style="rounded=0;whiteSpace=wrap;html=1;fontSize=15;fontFamily=Times New Roman;strokeColor=default;shadow=0;arcSize=50;backgroundOutline=0;container=0;comic=0;fontColor=default;" vertex="1" parent="1">
          <mxGeometry x="250" y="640" width="60" height="70" as="geometry" />
        </mxCell>
        <mxCell id="tLWVuBAh7IST3Z_mRKRW-51" value="&lt;font face=&quot;Verdana&quot; style=&quot;font-size: 30px;&quot;&gt;...&lt;/font&gt;" style="text;strokeColor=none;align=center;fillColor=none;html=1;verticalAlign=middle;whiteSpace=wrap;rounded=0;fontSize=11;fontFamily=Helvetica;fontColor=default;" vertex="1" parent="1">
          <mxGeometry x="190" y="650" width="60" height="30" as="geometry" />
        </mxCell>
      </root>
    </mxGraphModel>
  </diagram>
</mxfile>
